<svg width="126" height="32" viewBox="0 0 182 49" fill="none" xmlns="http://www.w3.org/2000/svg">
<path d="M8.25484 36.4369C7.98688 37.2606 7.21914 37.8182 6.35295 37.8182H2.04356C0.669463 37.8182 -0.295357 36.4644 0.153034 35.1655L11.8276 1.34736C12.1059 0.541035 12.8651 0 13.7181 0H21.1706C22.024 0 22.7833 0.541435 23.0614 1.34819L34.7195 35.1664C35.1672 36.4651 34.2024 37.8182 32.8287 37.8182H28.5188C27.6522 37.8182 26.8842 37.2601 26.6166 36.4358L17.6381 8.78259C17.6108 8.69879 17.5328 8.64205 17.4446 8.64205C17.3566 8.64205 17.2785 8.69874 17.2513 8.78248L8.25484 36.4369ZM7.26997 24.9531C7.26997 23.8486 8.16541 22.9531 9.26997 22.9531H25.5086C26.6132 22.9531 27.5086 23.8486 27.5086 24.9531V27.1946C27.5086 28.2992 26.6132 29.1946 25.5086 29.1946H9.26997C8.1654 29.1946 7.26997 28.2992 7.26997 27.1946V24.9531Z" fill="#ffffff"/>
<path d="M38.3977 48.4545C37.2932 48.4545 36.3977 47.5591 36.3977 46.4545V11.4545C36.3977 10.35 37.2932 9.45455 38.3977 9.45455H42.1534C43.258 9.45455 44.1534 10.35 44.1534 11.4545V14.0055C44.1534 14.1233 44.2489 14.2188 44.3666 14.2188C44.4504 14.2188 44.5262 14.1696 44.562 14.0938C44.9038 13.3709 45.3831 12.637 46 11.892C46.6648 11.0919 47.5265 10.4271 48.5852 9.89773C49.6563 9.35606 50.9858 9.08523 52.5739 9.08523C54.6421 9.08523 56.5502 9.6269 58.2983 10.7102C60.0464 11.7813 61.4437 13.4001 62.4901 15.5668C63.5365 17.7211 64.0597 20.4233 64.0597 23.6733C64.0597 26.8371 63.5488 29.5085 62.527 31.6875C61.5175 33.8542 60.1387 35.4976 58.3906 36.6179C56.6548 37.7259 54.7098 38.2798 52.5554 38.2798C51.0289 38.2798 49.7301 38.0275 48.6591 37.5227C47.6004 37.018 46.7325 36.384 46.0554 35.6207C45.4028 34.8732 44.8989 34.12 44.5436 33.361C44.5193 33.3091 44.4675 33.2756 44.4102 33.2756C44.3296 33.2756 44.2642 33.3409 44.2642 33.4215V46.4545C44.2642 47.5591 43.3688 48.4545 42.2642 48.4545H38.3977ZM44.098 23.6364C44.098 25.3229 44.3319 26.794 44.7997 28.0497C45.2675 29.3054 45.9446 30.2841 46.831 30.9858C47.7173 31.6752 48.7945 32.0199 50.0625 32.0199C51.3428 32.0199 52.4261 31.669 53.3125 30.9673C54.1989 30.2533 54.8698 29.2685 55.3253 28.0128C55.7931 26.7448 56.027 25.286 56.027 23.6364C56.027 21.9991 55.7992 20.5587 55.3438 19.3153C54.8883 18.072 54.2173 17.0994 53.331 16.3977C52.4446 15.696 51.3551 15.3452 50.0625 15.3452C48.7822 15.3452 47.6989 15.6837 46.8125 16.3608C45.9384 17.0379 45.2675 17.9981 44.7997 19.2415C44.3319 20.4848 44.098 21.9498 44.098 23.6364Z" fill="#ffffff"/>
<path d="M67.664 48.4545C66.5594 48.4545 65.664 47.5591 65.664 46.4545V11.4545C65.664 10.35 66.5594 9.45455 67.664 9.45455H71.4197C72.5242 9.45455 73.4197 10.35 73.4197 11.4545V14.0055C73.4197 14.1233 73.5151 14.2188 73.6329 14.2188C73.7167 14.2188 73.7924 14.1696 73.8282 14.0938C74.17 13.3709 74.6494 12.637 75.2663 11.892C75.931 11.0919 76.7928 10.4271 77.8515 9.89773C78.9225 9.35606 80.2521 9.08523 81.8401 9.08523C83.9083 9.08523 85.8164 9.6269 87.5646 10.7102C89.3127 11.7813 90.7099 13.4001 91.7563 15.5668C92.8027 17.7211 93.3259 20.4233 93.3259 23.6733C93.3259 26.8371 92.815 29.5085 91.7932 31.6875C90.7838 33.8542 89.405 35.4976 87.6569 36.6179C85.9211 37.7259 83.976 38.2798 81.8217 38.2798C80.2951 38.2798 78.9964 38.0275 77.9253 37.5227C76.8666 37.018 75.9987 36.384 75.3217 35.6207C74.6691 34.8732 74.1651 34.12 73.8099 33.361C73.7856 33.3091 73.7337 33.2756 73.6764 33.2756C73.5958 33.2756 73.5305 33.3409 73.5305 33.4215V46.4545C73.5305 47.5591 72.635 48.4545 71.5305 48.4545H67.664ZM73.3643 23.6364C73.3643 25.3229 73.5982 26.794 74.066 28.0497C74.5338 29.3054 75.2109 30.2841 76.0972 30.9858C76.9836 31.6752 78.0608 32.0199 79.3288 32.0199C80.6091 32.0199 81.6924 31.669 82.5788 30.9673C83.4651 30.2533 84.136 29.2685 84.5915 28.0128C85.0593 26.7448 85.2932 25.286 85.2932 23.6364C85.2932 21.9991 85.0655 20.5587 84.61 19.3153C84.1545 18.072 83.4836 17.0994 82.5972 16.3977C81.7109 15.696 80.6214 15.3452 79.3288 15.3452C78.0485 15.3452 76.9651 15.6837 76.0788 16.3608C75.2047 17.0379 74.5338 17.9981 74.066 19.2415C73.5982 20.4848 73.3643 21.9498 73.3643 23.6364Z" fill="#ffffff"/>
<path d="M118.031 15.4608C118.425 16.5512 117.546 17.6031 116.389 17.6744L113.07 17.8786C112.072 17.94 111.221 17.2034 110.606 16.4144C110.583 16.384 110.559 16.3538 110.534 16.3239C110.128 15.8191 109.592 15.419 108.927 15.1236C108.275 14.8158 107.493 14.6619 106.582 14.6619C105.363 14.6619 104.336 14.9205 103.498 15.4375C102.661 15.9422 102.243 16.6193 102.243 17.4688C102.243 18.1458 102.514 18.7183 103.055 19.1861C103.597 19.6539 104.526 20.0294 105.844 20.3125L110.977 21.3466C113.735 21.9129 115.791 22.8239 117.145 24.0795C118.499 25.3352 119.176 26.9848 119.176 29.0284C119.176 30.8873 118.628 32.5185 117.533 33.9219C116.449 35.3253 114.96 36.4209 113.064 37.2088C111.18 37.9844 109.007 38.3722 106.545 38.3722C102.791 38.3722 99.7991 37.5904 97.5709 36.027C95.967 34.8865 94.8436 33.4493 94.2007 31.7155C93.7927 30.6151 94.6828 29.5479 95.8547 29.4864L99.6921 29.2849C100.681 29.233 101.502 29.9599 102.058 30.7786C102.335 31.1853 102.685 31.5313 103.111 31.8168C104.009 32.4077 105.16 32.7031 106.564 32.7031C107.943 32.7031 109.05 32.4384 109.888 31.9091C110.737 31.3674 111.168 30.6719 111.18 29.8224C111.168 29.1084 110.866 28.5237 110.275 28.0682C109.684 27.6004 108.774 27.2434 107.542 26.9972L102.631 26.0185C99.8606 25.4645 97.7986 24.5043 96.4444 23.1378C95.1026 21.7713 94.4317 20.0294 94.4317 17.9119C94.4317 16.09 94.9241 14.5204 95.9089 13.2031C96.9061 11.8859 98.3033 10.8703 100.101 10.1562C101.91 9.44224 104.028 9.08523 106.453 9.08523C110.035 9.08523 112.854 9.84233 114.91 11.3565C116.394 12.4427 117.434 13.8108 118.031 15.4608Z" fill="#ffffff"/>
<path d="M133.576 9.45455C134.681 9.45455 135.576 10.35 135.576 11.4545V13.3636C135.576 14.4682 134.681 15.3636 133.576 15.3636H120.495C119.391 15.3636 118.495 14.4682 118.495 13.3636V11.4545C118.495 10.35 119.391 9.45455 120.495 9.45455H133.576ZM122.373 4.65909C122.373 3.55452 123.268 2.65909 124.373 2.65909H128.239C129.344 2.65909 130.239 3.55452 130.239 4.65909V29.1023C130.239 29.8286 130.35 30.3949 130.572 30.8011C130.793 31.1951 131.101 31.4721 131.495 31.6321C131.901 31.7921 132.369 31.8722 132.899 31.8722C133.268 31.8722 133.637 31.8414 134.007 31.7798C134.478 31.6855 134.935 31.9897 135.035 32.4605L135.738 35.7886C135.939 36.7404 135.38 37.6793 134.431 37.892C133.717 38.0644 132.849 38.169 131.828 38.206C129.932 38.2798 128.27 38.0275 126.842 37.4489C125.426 36.8703 124.324 35.9716 123.536 34.7528C122.748 33.5341 122.361 31.9953 122.373 30.1364V4.65909Z" fill="#ffffff"/>
<path d="M149.682 38.3722C146.764 38.3722 144.253 37.7813 142.148 36.5994C140.055 35.4053 138.442 33.7188 137.31 31.5398C136.177 29.3485 135.611 26.7571 135.611 23.7656C135.611 20.848 136.177 18.2874 137.31 16.0838C138.442 13.8802 140.036 12.1629 142.092 10.9318C144.161 9.70076 146.586 9.08523 149.368 9.08523C151.239 9.08523 152.981 9.38684 154.594 9.99006C156.219 10.581 157.634 11.4735 158.841 12.6676C160.06 13.8617 161.008 15.3636 161.685 17.1733C162.362 18.9706 162.7 21.0758 162.7 23.4886V23.6491C162.7 24.7537 161.805 25.6491 160.7 25.6491H140.75C139.645 25.6491 138.75 24.7537 138.75 23.6491V22.7741C138.75 21.6696 139.645 20.7741 140.75 20.7741H153.295C154.4 20.7741 155.341 19.856 155.007 18.803C154.892 18.4385 154.742 18.0923 154.557 17.7642C154.064 16.8902 153.381 16.2069 152.507 15.7145C151.645 15.2098 150.642 14.9574 149.497 14.9574C148.303 14.9574 147.244 15.2344 146.321 15.7884C145.41 16.33 144.696 17.0625 144.179 17.9858C143.662 18.8968 143.397 19.9124 143.385 21.0327V25.6676C143.385 27.071 143.643 28.2836 144.161 29.3054C144.69 30.3272 145.435 31.1151 146.395 31.669C147.355 32.223 148.494 32.5 149.811 32.5C150.685 32.5 151.485 32.3769 152.212 32.1307C152.938 31.8845 153.56 31.5152 154.077 31.0227C154.246 30.8615 154.402 30.6885 154.545 30.5035C155.083 29.8076 155.858 29.2526 156.735 29.3105L160.232 29.5413C161.447 29.6214 162.325 30.7745 161.817 31.881C161.42 32.7473 160.902 33.5445 160.263 34.2727C159.13 35.5653 157.665 36.5748 155.868 37.3011C154.083 38.0152 152.021 38.3722 149.682 38.3722Z" fill="#ffffff"/>
<path d="M166.194 37.8182C165.089 37.8182 164.194 36.9228 164.194 35.8182V11.4545C164.194 10.35 165.089 9.45455 166.194 9.45455H169.82C170.925 9.45455 171.82 10.35 171.82 11.4545V14.2344C171.82 14.3278 171.896 14.4034 171.989 14.4034C172.064 14.4034 172.13 14.3538 172.152 14.2821C172.673 12.5818 173.529 11.2927 174.719 10.4148C175.938 9.50379 177.342 9.0483 178.93 9.0483C179.324 9.0483 179.748 9.07292 180.204 9.12216C180.916 9.19912 181.404 9.82758 181.404 10.5436V14.743C181.404 15.5217 180.643 16.1119 179.871 16.0099C179.219 15.9238 178.622 15.8807 178.08 15.8807C176.923 15.8807 175.889 16.1331 174.978 16.6378C174.079 17.1302 173.365 17.8196 172.836 18.706C172.319 19.5923 172.06 20.6141 172.06 21.7713V35.8182C172.06 36.9228 171.165 37.8182 170.06 37.8182H166.194Z" fill="#ffffff"/>
</svg>
