<svg width="32" height="32" viewBox="0 0 51 49" fill="none" xmlns="http://www.w3.org/2000/svg">
<path d="M49.6178 37.0158C50.442 37.2835 51 38.0515 51 38.918L51 46.1953C51 47.5689 49.647 48.5337 48.3484 48.0861L1.34835 31.8883C0.541512 31.6103 -7.93323e-07 30.8509 -8.30627e-07 29.9975L-1.31229e-06 18.9783C-1.34961e-06 18.1246 0.54191 17.365 1.34917 17.0872L48.3492 0.912275C49.6477 0.465387 51 1.43013 51 2.80342L51 10.0811C51 10.9481 50.4414 11.7163 49.6167 11.9836L11.8435 24.2273C11.7307 24.2639 11.6543 24.369 11.6543 24.4876C11.6543 24.6062 11.7306 24.7113 11.8434 24.7479L49.6178 37.0158Z" fill="#0069F7"/>
</svg>
